<?xml version="1.0" encoding="UTF-8" standalone="no"?>
<svg
   xmlns:dc="http://purl.org/dc/elements/1.1/"
   xmlns:cc="http://creativecommons.org/ns#"
   xmlns:rdf="http://www.w3.org/1999/02/22-rdf-syntax-ns#"
   xmlns:svg="http://www.w3.org/2000/svg"
   xmlns="http://www.w3.org/2000/svg"
   xmlns:sodipodi="http://sodipodi.sourceforge.net/DTD/sodipodi-0.dtd"
   xmlns:inkscape="http://www.inkscape.org/namespaces/inkscape"
   version="1.1"
   id="Layer_1"
   x="0px"
   y="0px"
   width="320.34378"
   height="118.13013"
   viewBox="0 0 320.34378 118.13012"
   enable-background="new 0 0 3473 1291"
   xml:space="preserve"
   sodipodi:docname="Bar_Ilan_logo2.svg"
   inkscape:version="1.0beta2 (2b71d25, 2019-12-03)"><metadata
   id="metadata136"><rdf:RDF><cc:Work
       rdf:about=""><dc:format>image/svg+xml</dc:format><dc:type
         rdf:resource="http://purl.org/dc/dcmitype/StillImage" /><dc:title /></cc:Work></rdf:RDF></metadata><defs
   id="defs134" /><sodipodi:namedview
   pagecolor="#ffffff"
   bordercolor="#666666"
   inkscape:document-rotation="0"
   borderopacity="1"
   objecttolerance="10"
   gridtolerance="10"
   guidetolerance="10"
   inkscape:pageopacity="0"
   inkscape:pageshadow="2"
   inkscape:window-width="1473"
   inkscape:window-height="938"
   id="namedview132"
   showgrid="false"
   inkscape:lockguides="true"
   fit-margin-top="0"
   fit-margin-left="0"
   fit-margin-right="0"
   fit-margin-bottom="0"
   inkscape:zoom="1.8387142"
   inkscape:cx="246.69478"
   inkscape:cy="-74.796713"
   inkscape:window-x="376"
   inkscape:window-y="47"
   inkscape:window-maximized="0"
   inkscape:current-layer="Layer_1" />  <path
   style="fill:#78cce8;fill-opacity:1;stroke-width:0.0923483"
   d="m 257.50075,118.1 c -0.20317,-0.019 -0.95119,-0.08 -1.66227,-0.1343 -6.97031,-0.5346 -14.37347,-2.7234 -20.68603,-6.1158 -9.94143,-5.3427 -17.78302,-13.462202 -22.76372,-23.570602 -1.97997,-4.0183 -3.21474,-7.4923 -4.20147,-11.8206 -0.58701,-2.5749 -1.10175,-6.1608 -1.17318,-8.1728 l -0.0279,-0.7849 h 7.9389 7.93891 l 0.19954,1.616 c 1.28344,10.3947 6.67277,19.6188 15.09381,25.834 10.15701,7.496502 23.56407,9.353002 35.43886,4.9075 5.58444,-2.0906 10.7938,-5.6319 14.64841,-9.9579 0.56317,-0.632 1.11555,-1.245 1.22752,-1.3621 l 0.20359,-0.213 h 9.27976 c 6.23843,0 9.29893,0.031 9.33826,0.095 0.13841,0.2239 -2.18822,4.2741 -3.76515,6.5544 -9.05907,13.099502 -23.00482,21.318202 -38.94739,22.952902 -1.3375,0.1371 -7.14682,0.2611 -8.08048,0.1725 z m -237.126759,-10.4506 -0.02378,-5.7949 -0.831135,-0.046 -0.831135,-0.046 v -1.0159 -1.015802 l 2.008577,-0.025 2.008576,-0.025 v 6.881702 6.8817 H 21.551431 20.39777 Z m 28.096291,0.2823 c -1.498353,-1.8615 -2.781865,-3.4425 -2.852246,-3.5132 -0.279648,-0.2811 -0.323911,0.058 -0.409968,3.1383 -0.04916,1.7595 -0.125052,3.1201 -0.177717,3.1863 -0.138354,0.1737 -1.949529,0.1593 -2.095596,-0.016 -0.250624,-0.302 0.151905,-4.1982 0.687606,-6.6556 0.401542,-1.8419 0.422644,-1.6486 -0.27213,-2.4934 -0.334146,-0.4063 -0.596702,-0.79 -0.583457,-0.8528 0.01325,-0.063 0.377315,-0.403 0.809045,-0.756402 l 0.78496,-0.6424 0.202133,0.2024 c 0.11118,0.1112 1.308271,1.573602 2.660215,3.249702 1.351944,1.6762 2.515671,3.0605 2.586056,3.0763 0.07039,0.016 0.187514,-0.088 0.260277,-0.2308 0.276341,-0.5425 0.821956,-2.3134 0.870013,-2.8239 0.059,-0.6267 -0.02407,-0.7544 -0.766888,-1.1794 -0.747719,-0.4278 -0.745436,-0.4157 -0.247726,-1.3196 0.241207,-0.438002 0.4807,-0.813202 0.532213,-0.833602 0.13494,-0.054 1.688204,0.631402 2.114002,0.932202 0.610995,0.4316 0.748503,0.6904 0.740225,1.393 -0.01226,1.0402 -0.565382,2.5525 -1.665112,4.5525 -0.324585,0.5904 -0.59015,1.0956 -0.59015,1.1229 0,0.027 0.415059,0.5624 0.922343,1.1892 0.507301,0.6269 0.922868,1.1872 0.923487,1.2452 0.0012,0.1121 -1.505908,1.4196 -1.632554,1.4163 -0.04112,0 -1.300678,-1.525 -2.799031,-3.3865 z m 135.659708,0 c -1.49835,-1.8612 -2.78186,-3.4419 -2.85224,-3.5127 -0.088,-0.089 -0.15775,-0.099 -0.22333,-0.034 -0.058,0.058 -0.13004,1.2996 -0.18387,3.1689 -0.0506,1.7574 -0.12787,3.1229 -0.18046,3.1889 -0.1384,0.1738 -1.94955,0.1594 -2.09563,-0.016 -0.2471,-0.2977 0.1274,-4.0158 0.65175,-6.4708 0.43971,-2.0587 0.46083,-1.825 -0.24425,-2.701 -0.3372,-0.419 -0.59921,-0.8024 -0.58223,-0.8521 0.017,-0.05 0.38407,-0.3798 0.8158,-0.733502 l 0.78496,-0.6431 0.20283,0.2023 c 0.11157,0.1113 1.30803,1.573702 2.65882,3.249802 1.47712,1.8329 2.51823,3.0475 2.61219,3.0475 0.27906,0 1.12907,-2.429 1.12907,-3.2264 0,-0.4291 -0.13623,-0.5984 -0.78496,-0.9757 -0.75688,-0.4403 -0.74687,-0.3919 -0.2656,-1.2842 0.23531,-0.436402 0.47037,-0.820502 0.52234,-0.853702 0.052,-0.033 0.42123,0.078 0.8206,0.246 1.45196,0.612402 1.96053,1.039002 2.06345,1.731002 0.13171,0.8856 -0.50044,2.7535 -1.62149,4.7911 -0.3531,0.6418 -0.64199,1.1886 -0.64199,1.2152 0,0.026 0.41506,0.5612 0.92235,1.188 0.50729,0.6268 0.92286,1.1871 0.92349,1.2451 0.001,0.1161 -1.49624,1.4198 -1.6263,1.4159 -0.0446,0 -1.30695,-1.5253 -2.8053,-3.3865 z m -157.496314,2.3976 c -0.384982,-0.4452 -0.68878,-0.8518 -0.675094,-0.9036 0.01368,-0.052 0.482003,-0.5135 1.04071,-1.0261 2.436186,-2.2348 3.720549,-3.7536 4.109132,-4.8591 0.205567,-0.5849 0.245185,-1.45 0.07425,-1.6209 -0.08068,-0.081 -0.784444,-0.1108 -2.588044,-0.1108 h -2.477216 l -0.0799,-0.2101 c -0.215495,-0.5669 -0.543424,-3.215602 -0.585239,-4.727302 l -0.0229,-0.8278 0.369394,-0.063 c 0.203166,-0.035 0.685206,-0.092 1.071204,-0.1271 l 0.70182,-0.064 0.06437,0.8626 c 0.08349,1.1188 0.311085,2.8571 0.383606,2.9298 0.03113,0.031 1.185633,0.078 2.565557,0.103 l 2.508966,0.046 0.174723,0.507902 c 0.279566,0.8126 0.311971,2.4488 0.06765,3.4149 -0.3547,1.4027 -1.148887,2.7151 -2.661848,4.3989 -0.562716,0.6262 -2.74318,2.6671 -3.165886,2.9632 -0.159707,0.1118 -0.237418,0.051 -0.87525,-0.6866 z m 101.163834,0.7508 c -2.29879,-0.3702 -3.52516,-1.4534 -4.11921,-3.6385 -0.11775,-0.4331 -0.16366,-0.9475 -0.16488,-1.847 -0.002,-1.3627 0.17479,-2.229 0.6428,-3.1526 0.31792,-0.6274 0.23572,-0.7113 -0.73049,-0.7455 l -0.75356,-0.027 v -0.9697 -0.969702 l 3.27837,-0.026 c 1.86788,-0.014 3.53663,0.014 3.87863,0.067 1.90649,0.293402 3.00677,1.136502 3.51729,2.695102 0.20154,0.6153 0.22263,0.8346 0.2209,2.2964 -0.002,1.8543 -0.0981,2.3397 -0.70761,3.5821 -0.62851,1.2811 -1.69213,2.1743 -3.03058,2.5447 -0.53737,0.1488 -1.64448,0.2522 -2.03166,0.1898 z m 1.7502,-2.3434 c 0.48485,-0.2473 1.04743,-0.9147 1.27719,-1.5151 0.39145,-1.023 0.49021,-2.8664 0.20648,-3.8542 -0.20385,-0.7097 -0.7748,-1.278 -1.47011,-1.4633 -0.45755,-0.122 -2.23938,-0.2278 -2.54479,-0.1512 -0.53148,0.1334 -1.06594,1.8854 -1.06594,3.4943 0,1.9597 0.65289,3.2421 1.84697,3.6275 0.51509,0.1663 1.27048,0.1068 1.7502,-0.138 z m -25.33996,2.191 c -0.0287,-0.094 -0.55907,-9.1156 -0.63114,-10.7355 l -0.0206,-0.461702 1.087,-0.1289 c 0.59785,-0.071 1.10883,-0.1071 1.13552,-0.08 0.0267,0.027 0.17274,2.058602 0.32456,4.515502 0.15182,2.4568 0.29405,4.5189 0.31606,4.5824 0.0544,0.1568 0.6262,0.1458 1.29622,-0.025 1.66164,-0.4232 2.91106,-1.5577 3.4643,-3.1456 0.23558,-0.6761 0.33313,-1.9735 0.18837,-2.5049 -0.28667,-1.0521 -1.33674,-1.531 -2.67884,-1.2217 -0.29364,0.068 -0.42567,0.065 -0.4719,-0.01 -0.0964,-0.156 -0.29063,-1.6504 -0.22772,-1.752202 0.0301,-0.049 0.35388,-0.1806 0.71955,-0.2932 0.86798,-0.2671 2.19787,-0.2863 2.90617,-0.042 1.60587,0.554102 2.4031,2.276102 2.14117,4.625102 -0.40069,3.5934 -2.79166,5.9866 -6.63823,6.6444 -1.06749,0.1825 -2.8589,0.2031 -2.91054,0.033 z m -35.096968,-0.1846 c -0.02188,-0.063 -0.05174,-1.7777 -0.06641,-3.8094 -0.02551,-3.5378 -0.03493,-3.7115 -0.221864,-4.1095 -0.437919,-0.9323 -0.711639,-1.0158 -3.327748,-1.0158 h -2.064049 v -1.0621 -1.062002 h 2.424144 c 2.69814,0 3.423648,0.095 4.121212,0.529002 0.927463,0.577 1.274747,1.3761 1.414802,3.2554 0.09172,1.2307 0.03617,7.1331 -0.06873,7.3029 -0.08451,0.1367 -2.163685,0.1084 -2.211363,-0.03 z m 4.805226,0.029 c -0.02931,-0.047 -0.01131,-0.4526 0.03997,-0.9004 0.0513,-0.4478 0.09361,-0.8869 0.09404,-0.9757 8.26e-4,-0.1502 0.189583,-0.1618 2.655773,-0.1631 1.460258,0 2.709304,-0.036 2.775655,-0.078 0.0959,-0.061 0.114846,-0.6335 0.09235,-2.7921 -0.02799,-2.6854 -0.03088,-2.7208 -0.259166,-3.1758 -0.391989,-0.7814 -0.536239,-0.825 -2.908973,-0.8789 l -2.031664,-0.046 v -1.0159 -1.015802 l 2.170188,-0.027 c 1.281278,-0.016 2.412175,0.015 2.760994,0.074 1.331457,0.227602 2.081798,0.910702 2.48379,2.261002 0.105148,0.3532 0.147297,1.178 0.179339,3.5092 0.02973,2.1634 0.07285,3.0672 0.148598,3.1153 0.05868,0.038 0.407987,0.069 0.776227,0.069 0.426954,0 0.669523,0.038 0.669523,0.1036 0,0.2818 -0.314704,1.806 -0.393578,1.9064 -0.111844,0.1422 -9.165543,0.1707 -9.253062,0.029 z m 15.129081,-0.051 c -0.02894,-0.075 0.0037,-0.543 0.07216,-1.0389 l 0.124817,-0.9017 0.923483,-0.046 0.923483,-0.046 0.05823,-2.1241 c 0.03204,-1.1681 0.125981,-2.6824 0.208801,-3.365 0.08281,-0.6826 0.118554,-1.2731 0.07943,-1.3122 -0.03914,-0.039 -0.465528,-0.083 -0.947578,-0.098 l -0.87645,-0.027 v -1.0159 -1.015802 h 4.201857 4.201848 l 0.55409,0.2204 c 0.746312,0.297002 1.43019,0.981502 1.69457,1.696302 0.10827,0.2927 0.23844,0.8953 0.2893,1.3391 0.12094,1.0555 0.12322,7.3208 0.003,7.6375 l -0.0912,0.2399 -1.086267,-0.026 -1.086258,-0.026 0.02803,-2.4473 c 0.03406,-2.9707 -0.08215,-5.2951 -0.28412,-5.6835 -0.396765,-0.763 -0.830283,-0.8917 -2.880064,-0.855 l -1.566232,0.028 -0.08454,0.3233 c -0.0465,0.1777 -0.09839,1.9647 -0.115325,3.971 -0.01693,2.0062 -0.06408,3.8555 -0.104789,4.1094 l -0.074,0.4618 -0.460809,0.061 c -0.253452,0.034 -1.178971,0.065 -2.056725,0.069 -1.331845,0.01 -1.604616,-0.014 -1.648565,-0.1291 z m 52.281171,0.022 c -0.0224,-0.063 -0.0522,-1.7985 -0.0664,-3.8555 -0.0254,-3.7007 -0.0279,-3.7447 -0.24005,-4.1753 -0.13133,-0.2667 -0.34591,-0.517 -0.55409,-0.6465 -0.32296,-0.2008 -0.4493,-0.2135 -2.55611,-0.2574 l -2.21636,-0.046 -0.0262,-1.0462 -0.0262,-1.046102 2.75045,0.034 c 2.62925,0.032 2.77488,0.043 3.30455,0.2514 1.13289,0.445102 1.70814,1.339102 1.89153,2.939602 0.13765,1.2014 0.12368,7.7125 -0.0169,7.853 -0.15805,0.1581 -2.18852,0.1539 -2.24434,0 z m 4.81679,0.046 c -0.0234,-0.038 0.005,-0.5056 0.0638,-1.0389 l 0.10649,-0.9697 2.70466,-0.046 c 2.26417,-0.039 2.72012,-0.069 2.79958,-0.1847 0.13146,-0.1918 0.0356,-4.9953 -0.1103,-5.5251 -0.14136,-0.5134 -0.58637,-0.983 -1.05465,-1.113 -0.21176,-0.059 -1.14357,-0.1025 -2.19219,-0.1028 h -1.82388 v -1.062 -1.062002 h 2.23944 c 2.54388,0 3.2421,0.1 3.9484,0.552802 0.53977,0.3464 0.87685,0.8181 1.13266,1.5852 0.17904,0.5369 0.19796,0.834 0.23136,3.6322 0.0229,1.9153 0.072,3.0904 0.13218,3.1629 0.0608,0.073 0.34468,0.1155 0.77713,0.1155 0.58723,0 0.68134,0.022 0.6815,0.1616 0,0.3756 -0.3111,1.8294 -0.40539,1.8917 -0.13566,0.09 -9.17561,0.091 -9.2308,0 z m 16.60271,-0.032 c -0.0606,-0.098 0.005,-1.1097 0.11227,-1.7225 l 0.0524,-0.3001 h 1.59451 c 1.26384,0 1.61705,-0.027 1.70322,-0.131 0.0834,-0.1005 0.0826,-0.8588 -0.003,-3.2553 -0.0617,-1.7184 -0.14553,-3.2165 -0.18636,-3.3292 -0.0705,-0.1945 -0.13222,-0.2063 -1.20889,-0.2309 l -1.13465,-0.026 v -1.0159 -1.015802 l 2.3318,-0.025 c 1.28249,-0.014 2.33429,-0.014 2.33733,0 0.003,0.014 0.0844,2.102502 0.18082,4.642102 0.13284,3.499 0.15207,4.8294 0.0794,5.4924 -0.0527,0.4812 -0.11578,0.9072 -0.1401,0.9466 -0.0726,0.1175 -5.64527,0.088 -5.71835,-0.03 z m 10.34572,-0.014 c -0.0238,-0.063 -0.0536,-2.0894 -0.0663,-4.502 l -0.0231,-4.3865 -0.85422,-0.026 -0.85422,-0.026 v -1.0603 -1.060302 l 2.05475,0.025 2.05475,0.025 0.0238,5.438302 c 0.0173,3.9397 -0.005,5.4728 -0.0806,5.564 -0.14288,0.1721 -2.19069,0.1815 -2.25485,0.01 z M 37.524602,106.1256 c -0.02352,-0.063 -0.05339,-1.0505 -0.06636,-2.1933 l -0.02359,-2.0779 -0.738786,-0.046 -0.738787,-0.046 -0.02612,-1.0389 -0.02611,-1.039002 h 1.988509 1.988518 v 3.278402 3.2784 H 38.72463 c -0.841422,0 -1.168927,-0.031 -1.20003,-0.1154 z m 79.908478,-2.0779 -0.0248,-2.1933 -0.76188,-0.027 -0.76187,-0.027 v -1.0582 -1.058302 h 1.98549 1.98549 v 3.278402 3.2783 h -1.19886 -1.19886 z m 40.88315,2.0779 c -0.0235,-0.063 -0.0534,-1.0505 -0.0664,-2.1933 l -0.0236,-2.0779 -0.76188,-0.027 -0.76187,-0.027 v -1.0582 -1.058302 h 1.98549 1.98549 v 3.278402 3.2783 h -1.15726 c -0.84142,0 -1.16893,-0.031 -1.20003,-0.1154 z"
   id="path140"
   inkscape:connector-curvature="0"
   sodipodi:nodetypes="ccssscccccsscccscccccccccccccccccccccsscscccssccccccccsccccscsccccccccccsscccsccscccscccccscccccccccsccccccccscccccccccccccccccsccccccssccscccccscsccccsccccccccccccccccccccscccccscccccccccccccccccccccccccscccccccccccccscccsccsccccccsccccccccscscccccccsccccccccccccccscccccccccccccccccccccscccccccccccccccccccccccccsc" />
<path
   inkscape:connector-curvature="0"
   id="path156"
   d="m 175.65981,90.749698 c 0.0261,-0.089 0.63471,-1.8843 1.35251,-3.9898 0.7178,-2.1055 1.28442,-3.882 1.25914,-3.9479 -0.0331,-0.086 -0.28813,-0.1197 -0.91486,-0.1197 -0.58522,0 -0.8985,-0.038 -0.95954,-0.1155 -0.0499,-0.063 -0.93373,-2.6504 -1.96417,-5.7487 -1.03043,-3.0982 -2.53233,-7.5808 -3.33755,-9.9611 -0.80522,-2.3804 -1.46404,-4.3855 -1.46404,-4.4558 0,-0.106 0.44364,-0.1279 2.58185,-0.1279 h 2.58184 l 0.18368,0.6233 c 0.10103,0.3429 0.99204,3.3661 1.98004,6.7184 0.988,3.3522 1.97848,6.7388 2.20108,7.5256 0.29293,1.0356 0.44627,1.4387 0.55516,1.4597 0.11978,0.023 0.25747,-0.3061 0.6756,-1.6154 0.28885,-0.9044 1.51233,-4.5741 2.71887,-8.1549 l 2.19372,-6.5106 2.41474,-0.025 c 1.92465,-0.019 2.41476,0 2.41476,0.095 0,0.092 -8.24828,23.8475 -9.61927,27.7037 l -0.28728,0.8081 h -2.30685 c -2.15349,0 -2.30368,-0.011 -2.25943,-0.1616 z m -165.606441,-7.6523 c -2.7195293,-0.3298 -4.5338742,-0.9149 -6.068917,-1.9574 -2.2657868,-1.5386 -3.58441761,-3.9487 -3.90019261,-7.1285 -0.07289146,-0.734 -0.09700547,-3.6433 -0.07807498,-9.4195 l 0.0273896,-8.3575 H 2.4808049 4.928036 l 0.052586,8.7269 c 0.056661,9.4031 0.040977,9.105 0.5513046,10.4815 0.2761205,0.7448 0.9266831,1.7131 1.4562225,2.1673 0.5912371,0.5072 1.5268562,0.9847 2.3910323,1.2203 0.5945185,0.162 0.9784876,0.1963 2.1979376,0.1963 1.219451,0 1.603417,-0.034 2.197937,-0.1963 1.903576,-0.5189 3.241584,-1.7391 3.901911,-3.5583 0.550443,-1.5164 0.532943,-1.2049 0.589543,-10.4955 l 0.05204,-8.5422 h 2.401057 2.401057 v 8.6345 c 0,9.4692 0.01015,9.2707 -0.568238,11.1143 -1.191081,3.7966 -4.052485,6.2033 -8.251029,6.9401 -0.839972,0.1473 -3.551532,0.2584 -4.248026,0.174 z m 83.852295,-0.037 c -4.094905,-0.27 -6.572163,-1.6446 -7.898852,-4.3832 -1.023615,-2.1129 -1.385295,-5.0226 -1.016237,-8.1756 0.317079,-2.7088 1.093376,-4.6067 2.482362,-6.069 1.346733,-1.4177 3.050448,-2.2153 5.400091,-2.528 1.189668,-0.1583 3.570119,-0.06 4.495699,0.1855 2.626149,0.6967 4.345863,2.4654 5.171373,5.3184 0.36529,1.2625 0.51154,2.4007 0.57252,4.4558 l 0.0555,1.8701 h -6.562981 c -3.60965,0 -6.628733,0.025 -6.709068,0.056 -0.35315,0.1355 -0.04994,2.1412 0.467385,3.0917 0.311187,0.5717 1.058923,1.2857 1.671607,1.5962 0.971074,0.4921 1.688509,0.6299 3.540178,0.6798 1.895275,0.051 2.586936,-0.014 4.777799,-0.4507 0.77791,-0.1551 1.42632,-0.2674 1.4409,-0.2495 0.0436,0.053 0.70013,3.2721 0.70013,3.4326 0,0.1714 -0.42626,0.3131 -1.96714,0.6537 -2.019741,0.4465 -4.612465,0.6487 -6.621256,0.5162 z m 4.188801,-13.3018 c -0.03241,-1.9625 -0.871565,-3.548 -2.231097,-4.2157 -0.484156,-0.2377 -0.611755,-0.2584 -1.593233,-0.2584 -1.046913,0 -1.080086,0.01 -1.767981,0.3465 -1.286675,0.636 -2.136511,1.8392 -2.482131,3.514 -0.185437,0.8986 -0.217612,1.2865 -0.11518,1.3889 0.03439,0.034 1.894049,0.052 4.132594,0.038 l 4.070079,-0.024 z m 30.164785,13.3002 c -0.73648,-0.041 -1.76662,-0.14 -2.2892,-0.2191 -1.08445,-0.1641 -2.58624,-0.5019 -2.63941,-0.5937 -0.0514,-0.089 0.49783,-3.5576 0.57627,-3.6394 0.036,-0.037 0.41713,-0.01 0.84681,0.069 1.95928,0.3448 3.05241,0.4484 4.79841,0.4546 1.45454,0.01 1.9162,-0.025 2.40105,-0.1579 1.39474,-0.3817 2.09259,-1.2061 1.8982,-2.2422 -0.15357,-0.8187 -1.17766,-1.4439 -3.92986,-2.3994 -3.44305,-1.1953 -4.95136,-2.2069 -5.77728,-3.8748 -0.7543,-1.5233 -0.77789,-3.684 -0.0556,-5.0948 1.0121,-1.977 3.23112,-3.255 6.16892,-3.5528 1.81357,-0.1839 4.50947,0.1106 6.46058,0.7058 0.43181,0.1317 0.80294,0.2894 0.82472,0.3505 0.0399,0.1119 -0.71992,3.3526 -0.80636,3.439 -0.0256,0.026 -0.4785,-0.059 -1.00656,-0.187 -2.02021,-0.4913 -4.47268,-0.6527 -5.58121,-0.3673 -1.13015,0.2909 -1.79239,0.9467 -1.79558,1.7782 -0.004,1.1283 0.84628,1.7692 3.83093,2.8864 3.27882,1.2273 4.68954,2.0906 5.5694,3.4082 0.61714,0.9242 0.80264,1.6082 0.80264,2.9597 0,1.4354 -0.20107,2.1572 -0.88632,3.1817 -1.53452,2.2943 -4.76417,3.3566 -9.41052,3.0952 z m 32.36809,0 c -2.85838,-0.3918 -4.41407,-1.6453 -5.04764,-4.0672 -0.19572,-0.7482 -0.20443,-0.9823 -0.25559,-6.8696 l -0.053,-6.095 -1.4314,-0.046 -1.4314,-0.046 -0.025,-1.8216 -0.025,-1.8215 1.45643,-0.026 1.45643,-0.026 0.0462,-2.0779 0.0462,-2.0778 2.37797,-0.025 2.37797,-0.025 v 1.947 c 0,1.1654 0.0384,2.0186 0.0956,2.1256 0.0916,0.1711 0.22515,0.1786 3.18796,0.1786 h 3.09238 l -0.0251,1.8238 -0.025,1.8239 -3.11531,0.024 -3.1153,0.024 -0.053,0.2114 c -0.0292,0.1163 -0.0402,2.6611 -0.0246,5.6551 l 0.0285,5.4438 0.22007,0.4869 c 0.45855,1.0147 1.11449,1.2652 3.14283,1.2006 0.88826,-0.029 1.70217,-0.1154 2.39038,-0.2558 0.60926,-0.1242 1.07418,-0.1782 1.11718,-0.1297 0.0405,0.046 0.18427,0.8728 0.31945,1.8378 0.2201,1.5713 0.23088,1.7656 0.10317,1.8595 -0.18568,0.1366 -1.44866,0.4517 -2.54644,0.6353 -1.06802,0.1786 -3.41312,0.2501 -4.2849,0.1307 z m 128.66433,-0.1552 c -17.05328,-0.013 -31.00596,-0.057 -31.00596,-0.099 0,-0.041 1.45961,-2.4205 3.24359,-5.2868 1.78397,-2.8663 3.95164,-6.3543 4.81704,-7.7511 0.86541,-1.3968 1.63552,-2.6123 1.71137,-2.7012 0.13027,-0.1526 0.95885,-0.1616 14.98179,-0.1616 13.4505,0 14.84915,-0.014 14.89994,-0.1461 0.11077,-0.2886 0.0532,-4.1945 -0.0828,-5.6137 -0.9907,-10.3414 -5.96828,-19.4866 -14.18582,-26.0633 -0.96785,-0.7746 -3.61265,-2.5567 -4.7453,-3.1975 -0.9139,-0.517 -2.59981,-1.3628 -3.27836,-1.6446 -0.27936,-0.116 -0.55954,-0.2575 -0.62264,-0.3144 -0.089,-0.08 0.81671,-1.6014 4.0468,-6.7961 2.28883,-3.681 4.2009,-6.7329 4.24903,-6.7821 0.0991,-0.1013 1.38659,0.5148 3.21846,1.5399 7.46628,4.178 13.91783,10.1873 18.61868,17.3424 2.43009,3.6989 4.49191,7.8914 5.90394,12.0053 1.94296,5.6607 2.99087,12.1808 2.89742,18.0276 -0.0136,0.849 -0.003,1.5648 0.0227,1.5909 0.0261,0.026 1.46821,0.05 3.20479,0.054 l 3.15744,0.01 v 8.0297 c 0,4.4164 -0.0104,8.0194 -0.0231,8.0068 -0.0127,-0.013 -13.97577,-0.033 -31.02904,-0.046 z m -260.540742,-0.3216 c -0.02453,-0.064 -0.03388,-4.6467 -0.02081,-10.183 l 0.02379,-10.066 2.377969,-0.025 2.37797,-0.025 v 0.8713 c 0,0.9318 0.04511,1.1635 0.226614,1.1635 0.06298,0 0.461224,-0.2321 0.884992,-0.5158 2.34683,-1.5708 4.644863,-2.2246 7.006764,-1.9935 2.501354,0.2448 3.894918,1.0481 4.713216,2.7169 0.771582,1.5735 0.849118,2.6555 0.815651,11.3821 l -0.02585,6.7414 h -2.354886 -2.354882 l -0.04983,-7.0647 c -0.05473,-7.7596 -0.05127,-7.7125 -0.62542,-8.5408 -0.589043,-0.8498 -1.364972,-1.1058 -3.150499,-1.0394 -1.509526,0.056 -2.387528,0.2865 -3.954596,1.0373 -0.571406,0.2738 -1.048699,0.5106 -1.060649,0.5263 -0.01195,0.016 -0.04312,3.4154 -0.06926,7.5549 l -0.04753,7.5264 -2.334085,0.025 c -1.81737,0.019 -2.343959,0 -2.378663,-0.092 z m 24.492203,0.054 c -0.03468,-0.035 -0.06309,-4.6281 -0.06309,-10.2075 v -10.1445 l 2.424144,0.025 2.424144,0.025 v 10.1583 10.1583 l -2.361059,0.025 c -1.298577,0.014 -2.389442,0 -2.424144,-0.038 z m 15.556472,-0.1016 c -0.08158,-0.153 -6.91772,-19.7423 -7.009884,-20.0872 -0.041,-0.1534 0.110301,-0.1616 2.567948,-0.1385 l 2.61153,0.024 1.827644,5.9565 c 1.005214,3.276 2.089494,6.9067 2.409529,8.0681 0.506512,1.8381 0.699806,2.3262 0.858375,2.1677 0.02072,-0.021 0.348468,-1.0544 0.728335,-2.2971 0.611623,-2.0007 4.560539,-13.5898 4.716865,-13.8427 0.06726,-0.1089 5.036875,-0.1457 5.036875,-0.037 0,0.1222 -7.599163,20.1199 -7.688287,20.2322 -0.06983,0.088 -0.790125,0.1155 -3.032184,0.1155 -2.706174,0 -2.947455,-0.013 -3.026746,-0.1617 z m 39.278537,0.048 c -0.0245,-0.064 -0.0339,-4.6467 -0.0208,-10.183 l 0.0238,-10.066 h 2.40105 2.40106 l 0.0258,1.2237 c 0.0299,1.4218 0.0729,1.4713 0.66407,0.7652 0.79171,-0.9456 2.1441,-1.8365 3.37349,-2.2222 0.51591,-0.1618 0.87022,-0.2027 1.75462,-0.2023 1.16844,0 2.25074,0.1589 2.32008,0.3397 0.0433,0.1127 -0.56387,3.6841 -0.65006,3.8235 -0.028,0.045 -0.26098,0.042 -0.53402,-0.01 -0.26636,-0.048 -1.10883,-0.073 -1.87215,-0.054 -1.21531,0.03 -1.47174,0.064 -2.06255,0.2774 -0.85219,0.3075 -1.76593,0.8512 -2.41898,1.4395 l -0.50792,0.4576 -0.0462,7.238 -0.0462,7.2381 -2.38026,0.025 c -1.85434,0.019 -2.39012,0 -2.42484,-0.092 z m 35.29701,0.054 c -0.0347,-0.035 -0.0631,-4.6275 -0.0631,-10.2061 v -10.1429 h 2.40146 2.40146 l -0.0235,10.1814 -0.0235,10.1814 -2.31485,0.025 c -1.27317,0.014 -2.34326,0 -2.37797,-0.038 z m 107.23545,-25.3545 c -5.35291,-6.1598 -11.2673,-12.9663 -13.1431,-15.1255 -1.87579,-2.1591 -3.4527,-3.954 -3.50426,-3.9886 -0.16339,-0.1095 -0.39793,0.087 -1.31742,1.1034 -5.3651,5.9309 -8.60676,12.9988 -9.58211,20.8922 l -0.19969,1.6161 h -7.93891 -7.9389 l 0.0252,-0.785 c 0.0139,-0.4317 0.0873,-1.3698 0.16316,-2.0846 1.08469,-10.2204 5.10466,-19.8956 11.62321,-27.9748 0.97172,-1.2043 2.69663,-3.1218 3.6949,-4.1074 0.43615,-0.4306 0.793,-0.8291 0.793,-0.8856 0,-0.056 -1.89118,-2.2795 -4.20261,-4.9404 -2.31143,-2.6607 -4.19188,-4.8688 -4.17877,-4.9068 0.0506,-0.1466 11.92788,-10.4049002 11.99728,-10.3620002 0.0404,0.025 1.97729,2.2357 4.30419,4.9127002 5.31565,6.1155 16.82868,19.3634 28.76822,33.1033 5.06484,5.8285 9.20881,10.6376 9.20881,10.6867 0,0.049 -1.17154,1.9711 -2.60343,4.2708 -1.43189,2.2997 -3.37712,5.4253 -4.32274,6.9458 -0.94562,1.5205 -1.763,2.7792 -1.81639,2.797 -0.0534,0.018 -4.47673,-5.0075 -9.82965,-11.1673 z m -196.668678,0.1183 c -0.825366,-0.8595 -1.500661,-1.5976 -1.500661,-1.6403 0,-0.1049 2.981418,-3.0767 3.086677,-3.0767 0.08745,0 2.997313,2.8153 3.13274,3.031 0.05611,0.089 -0.361155,0.5667 -1.474027,1.6866 -0.85375,0.8591 -1.595437,1.5621 -1.648176,1.562 -0.05274,0 -0.771191,-0.7032 -1.596553,-1.5626 z m 90.117408,0.025 c -0.81735,-0.8457 -1.48609,-1.5797 -1.48609,-1.6311 0,-0.1253 2.87401,-3.0558 3.03725,-3.097 0.0705,-0.018 0.82898,0.6675 1.68539,1.5228 l 1.5571,1.5551 -1.59205,1.5939 c -0.87563,0.8767 -1.61982,1.5941 -1.65377,1.5941 -0.0339,0 -0.73048,-0.692 -1.54783,-1.5378 z m -69.315945,-10.5709 c -2.710196,-0.3354 -4.583795,-1.9153 -5.079226,-4.2832 -0.17242,-0.8241 -0.173597,-2.3124 -0.0025,-3.1201 0.393405,-1.8566 1.718207,-3.2353 3.830611,-3.9864 1.306359,-0.4645 2.546669,-0.6129 5.591432,-0.6693 1.615746,-0.03 2.818564,-0.09 2.885885,-0.1431 0.26626,-0.2118 0.08243,-2.7368 -0.245702,-3.3747 -0.549075,-1.0675 -1.607275,-1.4467 -4.025408,-1.4425 -1.639878,0 -2.889415,0.1621 -4.571244,0.5825 -0.584102,0.146 -1.09864,0.2316 -1.143411,0.1902 -0.130634,-0.1209 -0.985974,-3.3518 -0.907988,-3.4298 0.152866,-0.1528 2.394537,-0.8261 3.462547,-1.0399 3.52837,-0.7063 7.356313,-0.4824 9.463267,0.5535 1.310439,0.6444 2.119588,1.6503 2.535865,3.1527 0.192472,0.6947 0.201873,0.9412 0.251697,6.5993 0.05025,5.7078 0.05708,5.8835 0.236224,6.0813 0.26891,0.297 0.668796,0.4789 1.197178,0.5448 l 0.465312,0.058 -0.023,1.2455 c -0.01263,0.6851 -0.04713,1.5052 -0.07661,1.8227 l -0.0536,0.5772 H 87.44601 c -2.514895,0 -4.195597,-0.6488 -4.812307,-1.8577 -0.100652,-0.1973 -0.225497,-0.3587 -0.277423,-0.3587 -0.05193,0 -0.310807,0.1583 -0.575295,0.3518 -2.253962,1.6487 -4.475411,2.263 -7.037616,1.9459 z m 4.326471,-3.9079 c 1.075379,-0.2728 2.740975,-0.9248 2.899786,-1.135 0.163936,-0.2171 0.163705,-3.8025 0,-4.0268 -0.107104,-0.1465 -0.280304,-0.1511 -2.331794,-0.063 -2.494892,0.1074 -3.258309,0.2353 -4.063069,0.6806 -0.98592,0.5455 -1.397796,1.3206 -1.315983,2.4765 0.07402,1.0456 0.640998,1.766 1.669906,2.1215 0.722902,0.2499 2.032254,0.2273 3.141422,-0.054 z m 60.732934,3.9482 c -2.08255,-0.1786 -3.29492,-1.2046 -3.85399,-3.2615 -0.15186,-0.5587 -0.16316,-1.3901 -0.16316,-12.0052 v -11.4051 l 2.37539,-0.025 2.3754,-0.025 0.0256,10.7832 c 0.0254,10.6676 0.0277,10.7871 0.21502,11.1441 0.34389,0.6555 1.01418,0.8236 2.44257,0.6126 0.27935,-0.041 0.53602,-0.049 0.57037,-0.016 0.0919,0.086 0.58531,3.5974 0.51539,3.6673 -0.2212,0.2212 -3.5438,0.6124 -4.50265,0.5302 z m 12.32592,-0.033 c -2.31565,-0.3028 -3.92098,-1.3437 -4.69871,-3.0466 -0.87497,-1.9157 -0.7561,-4.5183 0.27756,-6.077 0.54599,-0.8234 1.19306,-1.3698 2.20737,-1.8642 1.67835,-0.818 2.87491,-1.0136 6.69526,-1.0944 l 2.72427,-0.058 v -1.4314 c 0,-1.3777 -0.01,-1.451 -0.25623,-1.9532 -0.43433,-0.8844 -1.16309,-1.2863 -2.66998,-1.4723 -1.55274,-0.1918 -3.93915,0.042 -6.14857,0.6035 -0.4938,0.1254 -0.92348,0.1987 -0.95484,0.1629 -0.0314,-0.036 -0.25767,-0.8032 -0.50291,-1.7053 -0.30079,-1.1064 -0.41547,-1.6705 -0.35243,-1.7335 0.26637,-0.2664 2.84828,-0.9858 4.51293,-1.2574 1.37857,-0.225 4.58868,-0.2257 5.89443,0 2.39097,0.4109 3.86954,1.3049 4.61477,2.7903 0.5631,1.1223 0.55542,1.0281 0.61255,7.5213 0.0394,4.4823 0.0807,6.0059 0.16667,6.1561 0.17226,0.3008 0.68511,0.5786 1.18971,0.6444 0.24785,0.032 0.49219,0.091 0.54299,0.1305 0.0901,0.07 0.002,3.2069 -0.0976,3.4936 -0.0701,0.2008 -2.64332,0.086 -3.56578,-0.1591 -1.22643,-0.3258 -2.01086,-0.8564 -2.3378,-1.5814 -0.0924,-0.205 -0.20991,-0.3727 -0.2611,-0.3727 -0.0512,0 -0.45005,0.244 -0.88637,0.5422 -2.20394,1.5065 -4.35057,2.0707 -6.70619,1.7627 z m 4.66618,-3.9975 c 0.8606,-0.2578 2.04931,-0.7305 2.37704,-0.9453 0.2062,-0.1351 0.20871,-0.161 0.20871,-2.1608 0,-1.1217 -0.0376,-2.0474 -0.0843,-2.0762 -0.15776,-0.098 -4.66128,0.1413 -5.26297,0.2791 -1.21979,0.2793 -2.09541,0.9955 -2.36936,1.9378 -0.34259,1.1785 0.15389,2.3827 1.20611,2.9255 0.61642,0.3179 0.78747,0.3446 1.98549,0.3092 0.89775,-0.026 1.32884,-0.086 1.93932,-0.2693 z m -110.540971,-9.4808 v -13.2173 l 5.379292,0.034 c 4.62092,0.029 5.493323,0.057 6.188188,0.1934 2.537078,0.4991 4.346337,1.5713 5.26537,3.1203 0.791557,1.3342 1.109048,3.3703 0.765984,4.9123 -0.314779,1.4149 -1.290687,2.8272 -2.420577,3.503 -0.27218,0.1628 -0.494869,0.3404 -0.494869,0.3948 0,0.054 0.327903,0.2328 0.728673,0.3967 1.951231,0.7978 3.358192,2.2274 3.949197,4.0128 0.223371,0.6748 0.251747,0.9014 0.256941,2.0514 0.0043,0.9387 -0.04042,1.4953 -0.162924,2.0317 -0.20625,0.903 -0.841641,2.243 -1.354251,2.856 -1.132413,1.3542 -2.882975,2.2325 -5.396108,2.7073 -0.604298,0.1142 -1.880321,0.1485 -6.725359,0.1807 l -5.979557,0.04 z m 11.663854,9.1067 c 1.359887,-0.3221 2.18873,-0.9068 2.669348,-1.883 0.29267,-0.5946 0.304011,-0.659 0.304011,-1.7277 0,-1.0283 -0.01961,-1.1526 -0.265917,-1.6858 -0.483478,-1.0468 -1.399179,-1.703 -2.897668,-2.0766 -0.738545,-0.1842 -1.047573,-0.2017 -3.624018,-0.2059 h -2.816624 l -0.02415,3.7862 c -0.01325,2.0824 -0.0025,3.8421 0.02349,3.9104 0.07317,0.1906 5.758439,0.094 6.631516,-0.1129 z m -1.695309,-11.2765 c 2.0074,-0.4223 3.028951,-1.8566 2.823531,-3.9645 -0.131984,-1.3545 -0.644297,-2.1457 -1.738354,-2.6846 -1.008401,-0.4968 -1.802245,-0.6096 -4.083518,-0.5802 l -1.937218,0.025 -0.02419,3.5552 c -0.01334,1.9553 -0.0043,3.6072 0.02019,3.6708 0.06825,0.1779 4.074463,0.1603 4.939576,-0.022 z m 37.151792,5.1951 0.02349,-10.183 h 2.354886 2.354882 l 0.04617,1.2393 c 0.02684,0.7198 0.08571,1.2523 0.140488,1.2704 0.05187,0.017 0.315267,-0.2198 0.585332,-0.5266 0.969889,-1.1019 2.424496,-1.9965 3.677846,-2.2621 0.73937,-0.1567 1.95405,-0.174 2.7995,-0.04 0.84727,0.1343 0.92374,0.167 0.92145,0.3945 -0.003,0.2744 -0.60518,3.6561 -0.6613,3.7123 -0.0246,0.025 -0.39383,0 -0.82035,-0.06 -2.4187,-0.3256 -4.50449,0.2682 -6.086052,1.7325 l -0.555787,0.5145 -0.02366,7.1706 -0.02366,7.1707 -2.378379,0.025 -2.378373,0.025 z m 31.952624,-3.0475 0.0234,-13.2305 h 2.44723 2.44722 v 13.2058 13.2059 l -2.47062,0.025 -2.47064,0.025 z m 45.36284,13.1119 c -0.0242,-0.063 -0.0333,-4.6451 -0.0202,-10.1814 l 0.0238,-10.066 h 2.35488 2.35488 l 0.0262,0.9379 c 0.0169,0.606 0.0669,0.9716 0.14106,1.0332 0.0835,0.069 0.32851,-0.045 0.89727,-0.4189 1.02605,-0.6743 2.60807,-1.4338 3.64522,-1.75 0.76635,-0.2336 0.9571,-0.2537 2.44723,-0.2586 1.87845,-0.01 2.64754,0.1312 3.71735,0.6639 0.84749,0.4219 1.61593,1.1869 1.99929,1.9902 0.7456,1.5622 0.85818,3.2059 0.82038,11.9778 l -0.0265,6.1412 -2.37797,0.025 -2.37797,0.025 -0.002,-6.4428 c -8.3e-4,-3.5436 -0.0418,-6.8239 -0.0908,-7.2896 -0.18765,-1.7809 -0.80221,-2.5868 -2.19775,-2.8822 -1.4615,-0.3093 -3.6538,0.094 -5.51327,1.0137 -1.1858,0.5867 -1.06201,-0.3661 -1.06201,8.174 v 7.4238 h -2.35778 c -1.8012,0 -2.36816,-0.027 -2.40175,-0.1155 z m -62.52086,-8.4979 c -0.0251,-0.065 -0.0343,-0.9487 -0.0205,-1.9631 l 0.0251,-1.8444 h 5.26385 5.26386 v 1.9393 1.9393 l -5.24337,0.024 c -4.20603,0.019 -5.2524,0 -5.28897,-0.095 z m 151.43729,-1.9106 c -0.68646,-0.4186 -0.7585,-1.1355 -0.20867,-2.0764 0.20514,-0.351 0.35456,-0.6863 0.33206,-0.7449 -0.0399,-0.104 -3.92165,-2.562 -4.23155,-2.6796 -0.11852,-0.045 -0.25887,0.096 -0.58674,0.589 -0.61069,0.9184 -1.26964,1.1736 -1.95364,0.7565 -0.70827,-0.4319 -0.80411,-1.1453 -0.27351,-2.036 0.18577,-0.3119 0.33775,-0.6413 0.33775,-0.7321 0,-0.1106 -0.33654,-0.3725 -1.02001,-0.7939 -0.56102,-0.3459 -1.04244,-0.6652 -1.06984,-0.7095 -0.0274,-0.044 0.23986,-0.5464 0.5939,-1.1157 0.35405,-0.5693 1.84644,-2.9675 3.31643,-5.3293 1.46998,-2.3618 4.97161,-7.9927 7.78139,-12.5131002 2.80977,-4.5205 5.15573,-8.27069997 5.21324,-8.33389997 0.0817,-0.09 0.33405,0.027 1.15543,0.535 0.57798,0.35729997 1.11675,0.63709997 1.19727,0.62159997 0.0805,-0.016 0.27696,-0.2278 0.43653,-0.4716 0.42532,-0.64999997 0.67475,-0.88469997 1.04693,-0.98489997 0.76164,-0.2051 1.47467,0.301 1.55157,1.10129997 0.0402,0.4184 0.007,0.5275 -0.33622,1.1053 -0.20946,0.3526 -0.35855,0.6962 -0.33132,0.7636 0.062,0.1535 3.98165,2.5894 4.2488,2.6405 0.15741,0.03 0.27032,-0.081 0.57348,-0.5646 0.41379,-0.66 0.78187,-0.9164 1.31526,-0.9164 0.51812,0 0.91384,0.2569 1.12262,0.7289 0.2257,0.5102 0.17444,0.8105 -0.26227,1.5358 -0.17587,0.2921 -0.30612,0.6019 -0.28945,0.6885 0.0167,0.087 0.49751,0.4501 1.06853,0.8079 0.57103,0.3578 1.03833,0.6852 1.03845,0.7276 0,0.042 -3.01773,4.9252002 -6.70634,10.8509002 -3.68861,5.9257 -7.50145,12.0514 -8.47296,13.6128 -0.97152,1.5613 -1.80942,2.8392 -1.862,2.8397 -0.0526,0 -0.56046,-0.2892 -1.1286,-0.6437 -0.56815,-0.3545 -1.08667,-0.624 -1.15229,-0.5988 -0.0656,0.025 -0.27542,0.2956 -0.46627,0.6009 -0.19085,0.3053 -0.48122,0.637 -0.64526,0.737 -0.38091,0.2322 -0.95327,0.2329 -1.3327,0 z"
   style="fill:#014129;fill-opacity:1;stroke-width:0.0923483"
   sodipodi:nodetypes="cccsccsssccscccscssccscccsscccscccsccscccsccccscccccccsccccccsccccscccccccccccccccccsccccccccsccccscccccccccccscscccccccccccccscccscscscccccccccssccccsscccccccsscscscccccccssccccsccccccccccccccscscsccccccsccccccccccccccccscccccccscccsccccsccsccccsssscssssccsssscscsssccccccccccscccscsccccscsccccccccccccccscccsssccccccsscscccccsccssccccccscccscscccccsccsccccsccccsccccccsccccccccscsccccsccccccccccccccccccccccccccccccccccccccccscccccccscscccccccccsccscccccsccscsccscccccccscccscscccccccc" /></svg>
