<?xml version="1.0" encoding="UTF-8"?>
<svg id="Layer_1" data-name="Layer 1" xmlns="http://www.w3.org/2000/svg" viewBox="0 0 575.78 431.13">
  <defs>
    <style>
      .cls-1 {
        stroke-width: 11.35px;
      }

      .cls-1, .cls-2, .cls-3 {
        stroke-miterlimit: 10;
      }

      .cls-1, .cls-3 {
        fill: #231f20;
        stroke: #ef4136;
      }

      .cls-2 {
        fill: none;
        stroke: #231f20;
        stroke-width: 22.7px;
      }

      .cls-3 {
        stroke-width: 11.29px;
      }
    </style>
  </defs>
  <path class="cls-2" d="M562.62,11.35l-52.11,351.01c-5.2,30.39-22.92,57.42-51.26,57.42H13.05L62.94,64.69c5.41-31.71,23.77-53.34,50.73-53.34h448.95Z"/>
  <path class="cls-3" d="M130.17,10.91c13.2-.29,39.61,.05,62.71,.17,23.1,.11,42.91,.24,42.91,.24l-.41,16.06-.49,18.97-47.74-.17-47.46,.34c-9.15,.22-18.15,.38-24.34,4.98-6.18,4.6-10.45,11.49-11.91,20.88l-8.1,57.88-8.1,57.88,52.59,1.04,52.59,1.04-.6,21.73-.6,21.73-55.48-.36-55.48-.36-13.44,93.53-13.44,93.53-20.15-.05-20.15-.05s8.98-67,19.67-145.11c10.7-78.12,23.12-167.36,30.01-211.85,2.54-16.44,9.85-31.31,20.3-40.35,9.98-10.95,28.86-11.28,47.11-11.69Z"/>
  <polygon class="cls-1" points="559.61 11.35 553.97 47.27 404.5 47.27 354.58 419.78 311.4 419.78 361.54 46.26 235.86 46.26 236.59 11.35 559.61 11.35"/>
  <polygon class="cls-1" points="559.67 11.41 554.03 47.33 404.56 47.33 354.63 419.84 311.46 419.84 361.6 46.32 235.92 46.32 236.65 11.41 559.67 11.41"/>
  <polygon class="cls-1" points="559.27 11.31 553.63 47.23 404.16 47.23 354.24 419.75 311.06 419.75 361.2 46.22 235.52 46.22 236.25 11.31 559.27 11.31"/>
</svg>